<svg width="187" height="235" viewBox="0 0 187 235" fill="none" xmlns="http://www.w3.org/2000/svg">
<path d="M187 0H0V235H150C170.435 235 187 218.435 187 198V0Z" fill="#5CBEBA"/>
<path d="M28.406 179V175.542C30.4327 173.743 32.2313 172.059 33.802 170.488C35.398 168.917 36.6393 167.461 37.526 166.118C38.438 164.775 38.894 163.547 38.894 162.432C38.894 161.241 38.59 160.342 37.982 159.734C37.374 159.101 36.538 158.784 35.474 158.784C34.6127 158.784 33.8273 159.037 33.118 159.544C32.434 160.025 31.788 160.595 31.18 161.254L28.254 158.366C29.4193 157.049 30.61 156.061 31.826 155.402C33.0673 154.743 34.5367 154.414 36.234 154.414C37.8047 154.414 39.1853 154.731 40.376 155.364C41.592 155.997 42.5293 156.884 43.188 158.024C43.872 159.164 44.214 160.507 44.214 162.052C44.214 163.496 43.8213 164.915 43.036 166.308C42.276 167.676 41.2627 169.044 39.996 170.412C38.7293 171.78 37.3867 173.173 35.968 174.592C36.576 174.516 37.26 174.453 38.02 174.402C38.78 174.326 39.4387 174.288 39.996 174.288H45.392V179H28.406ZM57.7542 179.456C56.5888 179.456 55.4615 179.228 54.3722 178.772C53.2828 178.316 52.3075 177.607 51.4462 176.644C50.5848 175.681 49.9008 174.453 49.3942 172.958C48.8875 171.438 48.6342 169.614 48.6342 167.486C48.6342 165.231 48.9002 163.281 49.4322 161.634C49.9642 159.987 50.6862 158.632 51.5982 157.568C52.5102 156.504 53.5488 155.719 54.7142 155.212C55.8795 154.68 57.1082 154.414 58.4002 154.414C59.9962 154.414 61.3768 154.705 62.5422 155.288C63.7075 155.845 64.6702 156.517 65.4302 157.302L62.5042 160.646C62.0735 160.19 61.5162 159.797 60.8322 159.468C60.1482 159.113 59.4515 158.936 58.7422 158.936C57.8302 158.936 56.9815 159.202 56.1962 159.734C55.4362 160.266 54.8282 161.165 54.3722 162.432C53.9415 163.673 53.7262 165.358 53.7262 167.486C53.7262 169.487 53.9035 171.058 54.2582 172.198C54.6382 173.313 55.1322 174.111 55.7402 174.592C56.3482 175.048 56.9815 175.276 57.6402 175.276C58.1975 175.276 58.7042 175.137 59.1602 174.858C59.6162 174.579 59.9835 174.161 60.2622 173.604C60.5408 173.021 60.6802 172.274 60.6802 171.362C60.6802 170.501 60.5408 169.817 60.2622 169.31C59.9835 168.803 59.6035 168.436 59.1222 168.208C58.6662 167.98 58.1342 167.866 57.5262 167.866C56.8928 167.866 56.2342 168.056 55.5502 168.436C54.8915 168.816 54.2962 169.487 53.7642 170.45L53.4982 166.802C54.1315 165.865 54.9422 165.155 55.9302 164.674C56.9182 164.167 57.8048 163.914 58.5902 163.914C59.9582 163.914 61.1868 164.18 62.2762 164.712C63.3655 165.244 64.2142 166.067 64.8222 167.182C65.4555 168.271 65.7722 169.665 65.7722 171.362C65.7722 173.034 65.4048 174.478 64.6702 175.694C63.9608 176.91 62.9982 177.847 61.7822 178.506C60.5662 179.139 59.2235 179.456 57.7542 179.456ZM76.3382 185.06C75.9382 185.06 75.5782 185.03 75.2582 184.97C74.9582 184.91 74.6782 184.82 74.4182 184.7L75.0782 182.12C75.2782 182.18 75.4582 182.22 75.6182 182.24C75.7782 182.26 75.9382 182.27 76.0982 182.27C76.8782 182.27 77.4982 182.03 77.9582 181.55C78.4382 181.07 78.7982 180.47 79.0382 179.75L79.3082 178.82L73.5182 164.27H77.0282L79.5782 171.5C79.7982 172.14 80.0082 172.82 80.2082 173.54C80.4282 174.24 80.6482 174.94 80.8682 175.64H80.9882C81.1682 174.96 81.3482 174.27 81.5282 173.57C81.7282 172.85 81.9182 172.16 82.0982 171.5L84.3182 164.27H87.6482L82.3082 179.66C81.9082 180.76 81.4482 181.71 80.9282 182.51C80.4082 183.33 79.7782 183.96 79.0382 184.4C78.2982 184.84 77.3982 185.06 76.3382 185.06ZM96.3559 179.36C94.9759 179.36 93.7259 179.06 92.6059 178.46C91.5059 177.84 90.6359 176.96 89.9959 175.82C89.3559 174.66 89.0359 173.26 89.0359 171.62C89.0359 170.02 89.3659 168.65 90.0259 167.51C90.6859 166.35 91.5359 165.46 92.5759 164.84C93.6159 164.22 94.7159 163.91 95.8759 163.91C97.2159 163.91 98.3359 164.21 99.2359 164.81C100.136 165.41 100.806 166.24 101.246 167.3C101.706 168.34 101.936 169.54 101.936 170.9C101.936 171.22 101.916 171.53 101.876 171.83C101.856 172.13 101.816 172.42 101.756 172.7H91.6159V170.06H98.8759C98.8759 169 98.6359 168.17 98.1559 167.57C97.6759 166.95 96.9359 166.64 95.9359 166.64C95.3759 166.64 94.8259 166.79 94.2859 167.09C93.7659 167.39 93.3259 167.9 92.9659 168.62C92.6259 169.34 92.4559 170.34 92.4559 171.62C92.4559 172.78 92.6559 173.73 93.0559 174.47C93.4559 175.19 93.9859 175.73 94.6459 176.09C95.3059 176.43 96.0159 176.6 96.7759 176.6C97.4159 176.6 98.0159 176.51 98.5759 176.33C99.1559 176.15 99.6959 175.9 100.196 175.58L101.396 177.8C100.716 178.28 99.9359 178.66 99.0559 178.94C98.1959 179.22 97.2959 179.36 96.3559 179.36ZM108.449 179.36C107.589 179.36 106.829 179.18 106.169 178.82C105.509 178.46 104.989 177.96 104.609 177.32C104.249 176.66 104.069 175.9 104.069 175.04C104.069 173.38 104.759 172.13 106.139 171.29C107.539 170.43 109.749 169.84 112.769 169.52C112.749 169.02 112.649 168.56 112.469 168.14C112.309 167.72 112.029 167.39 111.629 167.15C111.249 166.89 110.729 166.76 110.069 166.76C109.349 166.76 108.639 166.89 107.939 167.15C107.259 167.41 106.589 167.74 105.929 168.14L104.669 165.8C105.209 165.46 105.799 165.15 106.439 164.87C107.079 164.57 107.759 164.34 108.479 164.18C109.199 164 109.949 163.91 110.729 163.91C111.949 163.91 112.959 164.16 113.759 164.66C114.579 165.14 115.189 165.86 115.589 166.82C116.009 167.76 116.219 168.92 116.219 170.3V179H113.369L113.129 177.38H113.009C112.329 177.94 111.619 178.41 110.879 178.79C110.139 179.17 109.329 179.36 108.449 179.36ZM109.529 176.54C110.129 176.54 110.679 176.42 111.179 176.18C111.699 175.92 112.229 175.54 112.769 175.04V171.92C111.429 172.08 110.369 172.29 109.589 172.55C108.809 172.81 108.249 173.13 107.909 173.51C107.589 173.87 107.429 174.3 107.429 174.8C107.429 175.42 107.629 175.87 108.029 176.15C108.429 176.41 108.929 176.54 109.529 176.54ZM120.348 179V164.27H123.198L123.438 166.88H123.558C124.078 165.92 124.698 165.19 125.418 164.69C126.158 164.17 126.928 163.91 127.728 163.91C128.108 163.91 128.428 163.93 128.688 163.97C128.948 164.01 129.188 164.09 129.408 164.21L128.718 167.15C128.478 167.09 128.258 167.05 128.058 167.03C127.858 166.99 127.598 166.97 127.278 166.97C126.698 166.97 126.088 167.2 125.448 167.66C124.808 168.1 124.258 168.88 123.798 170V179H120.348ZM135.474 179.36C134.454 179.36 133.444 179.17 132.444 178.79C131.464 178.41 130.614 177.88 129.894 177.2L131.424 175.22C132.084 175.76 132.754 176.15 133.434 176.39C134.114 176.63 134.834 176.75 135.594 176.75C136.394 176.75 136.984 176.58 137.364 176.24C137.744 175.9 137.934 175.48 137.934 174.98C137.934 174.58 137.784 174.24 137.484 173.96C137.204 173.68 136.834 173.44 136.374 173.24C135.914 173.04 135.404 172.84 134.844 172.64C134.124 172.38 133.454 172.07 132.834 171.71C132.214 171.33 131.704 170.87 131.304 170.33C130.924 169.77 130.734 169.1 130.734 168.32C130.734 167.02 131.214 165.96 132.174 165.14C133.134 164.32 134.434 163.91 136.074 163.91C137.074 163.91 137.994 164.08 138.834 164.42C139.674 164.74 140.394 165.16 140.994 165.68L139.464 167.63C138.944 167.25 138.414 166.97 137.874 166.79C137.334 166.61 136.764 166.52 136.164 166.52C135.424 166.52 134.874 166.68 134.514 167C134.154 167.32 133.974 167.7 133.974 168.14C133.974 168.5 134.084 168.81 134.304 169.07C134.544 169.31 134.884 169.53 135.324 169.73C135.764 169.91 136.294 170.1 136.914 170.3C137.674 170.56 138.384 170.88 139.044 171.26C139.704 171.62 140.224 172.09 140.604 172.67C141.004 173.23 141.204 173.94 141.204 174.8C141.204 175.64 140.984 176.41 140.544 177.11C140.104 177.79 139.454 178.34 138.594 178.76C137.754 179.16 136.714 179.36 135.474 179.36ZM28.462 204V192.865H35.024V194.293H30.162V197.472H34.276V198.9H30.162V202.572H35.194V204H28.462ZM35.6882 204L38.3572 199.665L35.8752 195.687H37.6942L38.7142 197.387C38.8389 197.614 38.9635 197.846 39.0882 198.084C39.2242 198.322 39.3602 198.554 39.4962 198.781H39.5642C39.6775 198.554 39.7909 198.322 39.9042 198.084C40.0289 197.846 40.1479 197.614 40.2612 197.387L41.1622 195.687H42.9132L40.4312 199.852L43.1002 204H41.2812L40.1592 202.215C40.0232 201.966 39.8815 201.716 39.7342 201.467C39.5869 201.218 39.4395 200.974 39.2922 200.736H39.2242C39.0995 200.974 38.9692 201.218 38.8332 201.467C38.6972 201.716 38.5669 201.966 38.4422 202.215L37.4392 204H35.6882ZM44.6619 207.4V195.687H46.0389L46.1749 196.622H46.2259C46.5886 196.305 46.9909 196.038 47.4329 195.823C47.8749 195.596 48.3283 195.483 48.7929 195.483C49.4956 195.483 50.0906 195.659 50.5779 196.01C51.0653 196.361 51.4336 196.854 51.6829 197.489C51.9436 198.124 52.0739 198.866 52.0739 199.716C52.0739 200.668 51.9039 201.478 51.5639 202.147C51.2353 202.816 50.7989 203.326 50.2549 203.677C49.7109 204.028 49.1273 204.204 48.5039 204.204C48.1413 204.204 47.7673 204.125 47.3819 203.966C47.0079 203.796 46.6453 203.564 46.2939 203.269L46.3449 204.68V207.4H44.6619ZM48.1809 202.81C48.5889 202.81 48.9573 202.691 49.2859 202.453C49.6146 202.215 49.8696 201.869 50.0509 201.416C50.2436 200.951 50.3399 200.39 50.3399 199.733C50.3399 199.155 50.2719 198.656 50.1359 198.237C49.9999 197.806 49.7846 197.478 49.4899 197.251C49.1953 197.013 48.8156 196.894 48.3509 196.894C48.0336 196.894 47.7106 196.979 47.3819 197.149C47.0533 197.319 46.7076 197.574 46.3449 197.914V202.028C46.6736 202.311 46.9966 202.515 47.3139 202.64C47.6426 202.753 47.9316 202.81 48.1809 202.81ZM57.626 204.204C56.8554 204.204 56.164 204.034 55.552 203.694C54.94 203.343 54.4527 202.844 54.09 202.198C53.7387 201.552 53.563 200.77 53.563 199.852C53.563 198.945 53.7444 198.169 54.107 197.523C54.4697 196.866 54.94 196.361 55.518 196.01C56.096 195.659 56.708 195.483 57.354 195.483C58.0907 195.483 58.7084 195.653 59.207 195.993C59.7057 196.322 60.0797 196.781 60.329 197.37C60.5897 197.948 60.72 198.628 60.72 199.41C60.72 199.569 60.7144 199.727 60.703 199.886C60.6917 200.045 60.669 200.198 60.635 200.345H54.787V199.036H59.224C59.224 198.333 59.071 197.795 58.765 197.421C58.459 197.036 58 196.843 57.388 196.843C57.0367 196.843 56.6967 196.939 56.368 197.132C56.0394 197.313 55.7674 197.625 55.552 198.067C55.3367 198.498 55.229 199.087 55.229 199.835C55.229 200.515 55.348 201.076 55.586 201.518C55.824 201.96 56.1414 202.294 56.538 202.521C56.9347 202.736 57.3597 202.844 57.813 202.844C58.1984 202.844 58.5554 202.793 58.884 202.691C59.224 202.578 59.5357 202.43 59.819 202.249L60.414 203.337C60.04 203.598 59.615 203.807 59.139 203.966C58.6744 204.125 58.17 204.204 57.626 204.204ZM62.6746 204V195.687H64.0516L64.1876 197.183H64.2386C64.522 196.65 64.8676 196.237 65.2756 195.942C65.695 195.636 66.137 195.483 66.6016 195.483C66.7943 195.483 66.9586 195.5 67.0946 195.534C67.242 195.557 67.378 195.596 67.5026 195.653L67.1626 197.098C67.038 197.064 66.919 197.041 66.8056 197.03C66.6923 197.007 66.5506 196.996 66.3806 196.996C66.0406 196.996 65.6836 197.132 65.3096 197.404C64.9356 197.665 64.6183 198.129 64.3576 198.798V204H62.6746ZM68.7836 204V195.687H70.4666V204H68.7836ZM69.6336 194.106C69.3276 194.106 69.0726 194.015 68.8686 193.834C68.6759 193.641 68.5796 193.392 68.5796 193.086C68.5796 192.791 68.6759 192.553 68.8686 192.372C69.0726 192.179 69.3276 192.083 69.6336 192.083C69.9509 192.083 70.2059 192.179 70.3986 192.372C70.5913 192.553 70.6876 192.791 70.6876 193.086C70.6876 193.392 70.5913 193.641 70.3986 193.834C70.2059 194.015 69.9509 194.106 69.6336 194.106ZM76.585 204.204C75.8143 204.204 75.123 204.034 74.511 203.694C73.899 203.343 73.4117 202.844 73.049 202.198C72.6977 201.552 72.522 200.77 72.522 199.852C72.522 198.945 72.7033 198.169 73.066 197.523C73.4287 196.866 73.899 196.361 74.477 196.01C75.055 195.659 75.667 195.483 76.313 195.483C77.0497 195.483 77.6673 195.653 78.166 195.993C78.6647 196.322 79.0387 196.781 79.288 197.37C79.5487 197.948 79.679 198.628 79.679 199.41C79.679 199.569 79.6733 199.727 79.662 199.886C79.6507 200.045 79.628 200.198 79.594 200.345H73.746V199.036H78.183C78.183 198.333 78.03 197.795 77.724 197.421C77.418 197.036 76.959 196.843 76.347 196.843C75.9957 196.843 75.6557 196.939 75.327 197.132C74.9983 197.313 74.7263 197.625 74.511 198.067C74.2957 198.498 74.188 199.087 74.188 199.835C74.188 200.515 74.307 201.076 74.545 201.518C74.783 201.96 75.1003 202.294 75.497 202.521C75.8937 202.736 76.3187 202.844 76.772 202.844C77.1573 202.844 77.5143 202.793 77.843 202.691C78.183 202.578 78.4947 202.43 78.778 202.249L79.373 203.337C78.999 203.598 78.574 203.807 78.098 203.966C77.6333 204.125 77.129 204.204 76.585 204.204ZM81.6336 204V195.687H83.0106L83.1466 196.86H83.1976C83.583 196.475 83.9966 196.152 84.4386 195.891C84.8806 195.619 85.385 195.483 85.9516 195.483C86.8356 195.483 87.4816 195.766 87.8896 196.333C88.2976 196.9 88.5016 197.71 88.5016 198.764V204H86.8186V198.985C86.8186 198.248 86.7053 197.727 86.4786 197.421C86.252 197.104 85.8893 196.945 85.3906 196.945C84.994 196.945 84.6426 197.041 84.3366 197.234C84.0306 197.427 83.6906 197.71 83.3166 198.084V204H81.6336ZM94.4301 204.204C93.6708 204.204 92.9908 204.034 92.3901 203.694C91.7894 203.343 91.3134 202.844 90.9621 202.198C90.6108 201.552 90.4351 200.77 90.4351 199.852C90.4351 198.934 90.6221 198.152 90.9961 197.506C91.3814 196.849 91.8858 196.35 92.5091 196.01C93.1324 195.659 93.8011 195.483 94.5151 195.483C95.0591 195.483 95.5294 195.574 95.9261 195.755C96.3228 195.936 96.6684 196.163 96.9631 196.435L96.1471 197.489C95.9544 197.308 95.7278 197.16 95.4671 197.047C95.2178 196.934 94.9288 196.877 94.6001 196.877C94.1354 196.877 93.7218 197.002 93.3591 197.251C92.9964 197.5 92.7074 197.846 92.4921 198.288C92.2768 198.73 92.1691 199.251 92.1691 199.852C92.1691 200.453 92.2711 200.974 92.4751 201.416C92.6791 201.858 92.9624 202.204 93.3251 202.453C93.6878 202.702 94.1071 202.827 94.5831 202.827C94.9344 202.827 95.2631 202.759 95.5691 202.623C95.8751 202.487 96.1471 202.311 96.3851 202.096L97.0991 203.133C96.7478 203.462 96.3454 203.722 95.8921 203.915C95.4388 204.108 94.9514 204.204 94.4301 204.204ZM101.902 204.204C101.132 204.204 100.44 204.034 99.8284 203.694C99.2164 203.343 98.7291 202.844 98.3664 202.198C98.0151 201.552 97.8394 200.77 97.8394 199.852C97.8394 198.945 98.0207 198.169 98.3834 197.523C98.7461 196.866 99.2164 196.361 99.7944 196.01C100.372 195.659 100.984 195.483 101.63 195.483C102.367 195.483 102.985 195.653 103.483 195.993C103.982 196.322 104.356 196.781 104.605 197.37C104.866 197.948 104.996 198.628 104.996 199.41C104.996 199.569 104.991 199.727 104.979 199.886C104.968 200.045 104.945 200.198 104.911 200.345H99.0634V199.036H103.5C103.5 198.333 103.347 197.795 103.041 197.421C102.735 197.036 102.276 196.843 101.664 196.843C101.313 196.843 100.973 196.939 100.644 197.132C100.316 197.313 100.044 197.625 99.8284 198.067C99.6131 198.498 99.5054 199.087 99.5054 199.835C99.5054 200.515 99.6244 201.076 99.8624 201.518C100.1 201.96 100.418 202.294 100.814 202.521C101.211 202.736 101.636 202.844 102.089 202.844C102.475 202.844 102.832 202.793 103.16 202.691C103.5 202.578 103.812 202.43 104.095 202.249L104.69 203.337C104.316 203.598 103.891 203.807 103.415 203.966C102.951 204.125 102.446 204.204 101.902 204.204ZM109.807 204.204C108.776 204.204 107.948 203.824 107.325 203.065C106.702 202.294 106.39 201.223 106.39 199.852C106.39 198.957 106.554 198.186 106.883 197.54C107.223 196.883 107.665 196.378 108.209 196.027C108.753 195.664 109.331 195.483 109.943 195.483C110.43 195.483 110.844 195.568 111.184 195.738C111.524 195.897 111.864 196.123 112.204 196.418L112.136 195.041V191.947H113.819V204H112.442L112.306 203.065H112.255C111.938 203.371 111.569 203.637 111.15 203.864C110.731 204.091 110.283 204.204 109.807 204.204ZM110.215 202.81C110.566 202.81 110.895 202.725 111.201 202.555C111.518 202.385 111.83 202.124 112.136 201.773V197.659C111.819 197.376 111.507 197.177 111.201 197.064C110.906 196.951 110.6 196.894 110.283 196.894C109.886 196.894 109.524 197.013 109.195 197.251C108.878 197.489 108.617 197.829 108.413 198.271C108.22 198.713 108.124 199.234 108.124 199.835C108.124 200.787 108.305 201.524 108.668 202.045C109.031 202.555 109.546 202.81 110.215 202.81Z" fill="white"/>
<path d="M122.592 130.838H105.375V123.417H120.918C121.304 123.417 121.676 123.245 121.923 122.949C122.169 122.653 122.281 122.259 122.206 121.875L118.261 99.8613C118.15 99.2317 117.605 98.7873 116.973 98.7873H87.237C86.6044 98.7873 86.0601 99.2456 85.9485 99.8613L82.0036 121.875C81.9292 122.259 82.0408 122.653 82.2874 122.949C82.5339 123.245 82.9061 123.417 83.2922 123.417H98.8348V130.838H77.6818L74.765 78.3058C74.6534 76.3196 73.2764 74.69 71.4388 74.1576V73.2317C73.0158 72.8382 74.2672 71.639 74.7278 70.0975L76.6118 70.4678C76.3745 72.0975 77.4678 73.653 79.1053 73.9493L108.046 79.3706C108.12 79.3845 108.181 79.3937 108.255 79.3937C108.613 79.3937 108.948 79.2225 109.162 78.9262C109.409 78.5789 109.437 78.1113 109.223 77.741C106.752 73.3567 102.733 70.3567 98.1927 69.5049L80.5661 66.2086C79.0169 65.9262 77.5283 66.8522 77.0538 68.2966L74.8441 67.866C74.4859 66.1392 73.1461 64.778 71.4342 64.3475V62.6576C73.0205 62.5234 74.2858 61.2131 74.2858 59.5975V41.7462C74.2858 37.1536 72.0668 32.6722 68.1824 29.4357C67.8475 29.1625 67.3869 29.1024 66.9915 29.2875C66.5961 29.4727 66.3449 29.8662 66.3449 30.3014L66.3588 59.5791C66.3588 61.1948 67.6102 62.5189 69.2104 62.6392V64.329C67.4985 64.7596 66.1587 66.1207 65.8005 67.8615L63.6047 68.3198C63.1442 66.8383 61.6323 65.8985 60.0832 66.1948L42.4566 69.491C37.9162 70.3429 33.8969 73.3429 31.4267 77.7271C31.2174 78.0975 31.2406 78.5651 31.4872 78.9123C31.6965 79.2086 32.0454 79.3799 32.3943 79.3799C32.4548 79.3799 32.5292 79.3799 32.6037 79.3567L61.5439 73.9493C63.1675 73.6391 64.2606 72.1114 64.0375 70.491L65.9215 70.0975C66.3913 71.6391 67.6334 72.8243 69.2104 73.2224V74.0372C67.1868 74.4446 65.6377 76.1715 65.5121 78.2966L62.5953 130.829H51.4817V119.25C51.9795 117.745 54.8916 108.199 50.649 100.732C46.1319 92.7685 35.4042 90.4954 34.9433 90.3981C34.4083 90.287 33.8501 90.5972 33.664 91.1157C33.5012 91.5463 29.9192 101.87 34.4316 109.833C38.2508 116.574 46.5134 119.227 49.2441 119.944V130.833L28.408 130.829C27.7893 130.829 27.2915 131.324 27.2915 131.94C27.2915 132.556 27.7893 133.051 28.408 133.051H122.592C123.211 133.051 123.709 132.556 123.709 131.94C123.709 131.324 123.211 130.829 122.592 130.829L122.592 130.838ZM36.3858 108.74C33.1247 102.976 34.7483 95.4673 35.4926 92.8278C38.135 93.5686 45.4432 96.064 48.7176 101.828C51.4716 106.694 50.7412 112.791 50.0062 116.162L43.5306 104.74C43.2329 104.208 42.5491 104.013 42.0049 104.319C41.4699 104.615 41.2745 105.296 41.5815 105.837L48.0571 117.259C44.7682 116.148 39.1485 113.615 36.3945 108.754L36.3858 108.74ZM96.8852 121.199V112.213H107.32V121.199H96.8852ZM96.8852 109.991V101.004H107.32V109.991H96.8852ZM109.553 121.199V112.213H118.21L119.824 121.199H109.553ZM117.801 109.991H109.553V101.004H116.201L117.815 109.991H117.801ZM87.9912 101.004H94.6389V109.991H86.3909L88.0051 101.004H87.9912ZM85.9816 112.213H94.6389V121.199H84.3812L85.9955 112.213H85.9816ZM101.054 123.421H103.115V130.842H101.054V123.421ZM80.139 68.3704L97.7656 71.6666C100.929 72.2592 103.734 74.0139 105.841 76.6805L79.4925 71.7547C79.0227 71.6667 78.711 71.213 78.7994 70.7408L79.1204 69.0602C79.2088 68.5926 79.6645 68.2824 80.139 68.3704ZM68.5647 59.5787V32.9025C70.8116 35.458 72.0258 38.5183 72.0258 41.7312V59.5824C72.0258 60.0639 71.6303 60.4482 71.1558 60.4482H69.4439C68.9601 60.4482 68.574 60.0547 68.574 59.5824L68.5647 59.5787ZM61.0983 71.7635L34.7495 76.6894C36.8568 74.0227 39.648 72.2681 42.8253 71.6755L60.4519 68.3792C60.4519 68.3792 60.5636 68.3654 60.6147 68.3654C61.0241 68.3654 61.3963 68.6617 61.4707 69.0691L61.7917 70.7497C61.8801 71.2172 61.5682 71.6756 61.0983 71.7635ZM67.9089 68.7775C67.9089 67.4672 68.9742 66.3932 70.3047 66.3932C71.6305 66.3932 72.7004 67.4534 72.7004 68.7775C72.7004 70.0969 71.6351 71.1617 70.3047 71.1617C68.9788 71.1617 67.9089 70.1015 67.9089 68.7775ZM64.806 130.837L67.7228 78.4296C67.7972 77.1565 68.8532 76.1704 70.1185 76.1704C71.3838 76.1704 72.4491 77.1565 72.5236 78.4296L75.4403 130.837H64.806Z" fill="white"/>
</svg>
