<svg width="187" height="235" viewBox="0 0 187 235" fill="none" xmlns="http://www.w3.org/2000/svg">
<path d="M187 0H0V198C0 218.435 16.5655 235 37 235H187V0Z" fill="#5CBEBA"/>
<path d="M65.5966 46.1244V39.7863C65.5966 39.0101 66.2248 38.3816 67.0003 38.3816C67.7759 38.3816 68.4041 39.0102 68.4041 39.7863V46.1244C68.4041 46.9006 67.7759 47.5291 67.0003 47.5291C66.2248 47.5291 65.5966 46.9005 65.5966 46.1244ZM47.3568 51.772C47.6185 52.2244 48.0896 52.472 48.575 52.472C48.8129 52.472 49.0556 52.4101 49.2745 52.2863C49.9454 51.9005 50.1738 51.0387 49.7884 50.3672L46.6239 44.8768C46.2385 44.2053 45.3773 43.9768 44.7063 44.3625C44.0353 44.7482 43.8069 45.6101 44.1924 46.2815L47.3568 51.772ZM35.7841 63.3529L30.2975 60.1862C29.6266 59.8005 28.7653 60.0291 28.3798 60.7005C27.9944 61.3719 28.2228 62.2338 28.8938 62.6195L34.3803 65.7862C34.5992 65.9148 34.8419 65.972 35.0798 65.972C35.5652 65.972 36.0363 65.7196 36.298 65.2719C36.6835 64.6005 36.455 63.7386 35.7841 63.3529ZM31.5442 83.0101C31.5442 82.2339 30.9161 81.6054 30.1405 81.6054H23.8069C23.0313 81.6054 22.4032 82.2339 22.4032 83.0101C22.4032 83.7862 23.0313 84.4148 23.8069 84.4148H30.1405C30.9161 84.4148 31.5442 83.7862 31.5442 83.0101ZM34.3802 100.234L28.8937 103.401C28.2227 103.786 27.9943 104.648 28.3797 105.32C28.6415 105.772 29.1126 106.02 29.5979 106.02C29.8358 106.02 30.0785 105.958 30.2974 105.834L35.784 102.667C36.455 102.282 36.6834 101.42 36.2979 100.748C35.9125 100.077 35.0512 99.8483 34.3802 100.234ZM96.7597 83.0101C96.7597 92.5149 92.1677 101.529 84.478 107.119C83.4644 107.857 82.9885 108.752 82.841 110.205V121.348C82.841 125.138 80.2571 128.333 76.7643 129.271L76.0363 132.162C75.8031 133.091 75.0941 135.91 72.6386 135.91H61.3609C58.9151 135.91 58.1965 133.095 57.9633 132.167L57.2353 129.267C53.7377 128.329 51.1538 125.133 51.1538 121.343V110.2C51.0111 108.752 50.5352 107.857 49.5217 107.119C41.8272 101.529 37.2351 92.515 37.2351 83.0101C37.2351 66.5858 50.5876 53.219 67.0051 53.219C83.4176 53.219 96.7701 66.581 96.7701 83.0101H96.7597ZM53.9564 117.738H80.0279V111.543H53.9564V117.738ZM68.9267 88.8859C70.7492 85.2954 73.1189 82.5144 75.5173 79.9431C76.0455 79.3764 76.9354 79.3478 77.5016 79.8764C78.0678 80.405 78.0964 81.2955 77.5682 81.8621C75.0367 84.5764 72.6383 87.4145 70.9301 91.1764C75.5125 91.2097 79.995 89.7525 81.6558 82.3573C81.8794 81.3716 82.4647 78.7811 84.8106 76.7477C79.3812 74.424 74.537 76.3525 71.848 78.9715C69.0642 81.6811 68.0411 85.3525 68.9215 88.8858L68.9267 88.8859ZM73.7946 129.552H60.1949L60.6802 131.481C61.0038 132.747 61.3083 133.047 61.3797 133.1H72.6194C72.6908 133.042 72.9906 132.747 73.3141 131.476L73.7995 129.552H73.7946ZM80.0283 121.352V120.552H53.9568V121.352C53.9568 124.323 56.3789 126.747 59.353 126.747H74.6424C77.6117 126.747 80.0338 124.328 80.0338 121.352H80.0283ZM93.9473 83.0142C93.9473 68.1382 81.8558 56.033 66.9901 56.033C52.1295 56.033 40.0281 68.1378 40.0281 83.0142C40.0281 91.6237 44.1871 99.7859 51.1583 104.852C52.7856 106.038 53.4518 107.481 53.7421 108.738H65.5957V104.286C65.5957 99.8761 64.1872 96.2571 62.2933 93.3856C61.0941 93.6666 59.9997 93.8094 58.9766 93.8094C58.0296 93.8094 57.1445 93.6904 56.2975 93.4523C53.509 92.6666 51.3105 90.5666 49.7688 87.2142C49.2406 86.0666 48.3698 84.6856 46.3427 84.1903C45.8478 84.0665 45.4528 83.6856 45.3196 83.1903C45.1864 82.6951 45.3339 82.1665 45.705 81.8142C47.8463 79.7618 50.4017 78.5475 53.0998 78.2951C55.5456 78.0713 58.0391 78.6666 60.1186 79.9713C64.2394 82.557 65.9763 87.1856 64.6059 91.8333C65.372 92.9952 66.0192 94.1857 66.5569 95.4095C66.7853 94.4285 67.0565 93.5 67.3563 92.6189C64.5774 87.2856 65.5386 81.2046 69.8926 76.9664C72.129 74.7901 75.0651 73.3854 78.1582 73.014C81.5796 72.6045 85.0866 73.433 88.3033 75.4188C88.7411 75.6902 88.9933 76.1712 88.9695 76.6855C88.9457 77.1998 88.6412 77.6569 88.1796 77.8807C85.5625 79.1475 84.782 81.276 84.3965 82.9855C83.3687 87.5712 81.2036 90.7664 77.9726 92.476C76.0359 93.4998 73.7851 93.9951 70.9918 93.9951C70.6254 93.9951 70.2495 93.9856 69.8688 93.9713C68.9551 96.8236 68.4127 100.181 68.4127 104.295V108.747H80.2423C80.5374 107.49 81.2035 106.048 82.8262 104.862C89.7927 99.7952 93.9516 91.629 93.9516 83.0237L93.9473 83.0142ZM62.255 88.7714C62.2646 86.1904 60.9702 83.819 58.629 82.3476C56.3878 80.9382 52.8094 80.2953 49.3832 82.4714C51.2248 83.6667 52.0051 85.3572 52.3193 86.0334C54.4131 90.581 57.4204 91.3287 60.3993 90.9001C58.1389 88.3096 55.6503 86.5715 54.0942 85.6239C53.4328 85.2239 53.2186 84.3572 53.6231 83.6954C54.0228 83.0335 54.8889 82.8192 55.5503 83.2239C57.4299 84.3668 59.9329 86.1811 62.2503 88.7763L62.255 88.7714ZM84.7195 52.2951C84.9384 52.4236 85.1811 52.4808 85.419 52.4808C85.9044 52.4808 86.3755 52.2284 86.6372 51.7808L89.8017 46.2903C90.1871 45.6189 89.9587 44.757 89.2878 44.3713C88.6168 43.9856 87.7555 44.2141 87.3701 44.8856L84.2056 50.376C83.8202 51.0475 84.0486 51.9094 84.7195 52.2951ZM98.9089 65.9813C99.1468 65.9813 99.3895 65.9194 99.6084 65.7956L105.095 62.6289C105.766 62.2432 105.994 61.3813 105.609 60.7099C105.223 60.0384 104.362 59.8099 103.691 60.1956L98.2047 63.3623C97.5337 63.748 97.3053 64.6099 97.6907 65.2813C97.9525 65.7337 98.4235 65.9813 98.9089 65.9813ZM110.182 81.6144H103.844C103.068 81.6144 102.44 82.2429 102.44 83.0191C102.44 83.7953 103.068 84.4238 103.844 84.4238H110.182C110.957 84.4238 111.586 83.7952 111.586 83.0191C111.586 82.2429 110.957 81.6144 110.182 81.6144ZM105.095 103.415L99.6084 100.248C98.9374 99.8622 98.0762 100.091 97.6907 100.762C97.3053 101.434 97.5337 102.296 98.2047 102.681L103.691 105.848C103.91 105.976 104.153 106.034 104.391 106.034C104.876 106.034 105.347 105.781 105.609 105.334C105.994 104.662 105.766 103.8 105.095 103.415Z" fill="white"/>
<path d="M25.462 167V155.865H28.811C29.6383 155.865 30.3693 155.973 31.004 156.188C31.65 156.392 32.1543 156.743 32.517 157.242C32.8797 157.729 33.061 158.387 33.061 159.214C33.061 160.019 32.8797 160.682 32.517 161.203C32.1657 161.724 31.6727 162.115 31.038 162.376C30.4033 162.625 29.6837 162.75 28.879 162.75H27.162V167H25.462ZM27.162 161.373H28.709C29.6157 161.373 30.2843 161.197 30.715 160.846C31.157 160.495 31.378 159.951 31.378 159.214C31.378 158.466 31.1457 157.95 30.681 157.667C30.2277 157.372 29.5477 157.225 28.641 157.225H27.162V161.373ZM38.0043 167.204C37.3129 167.204 36.6726 167.034 36.0833 166.694C35.4939 166.354 35.0123 165.861 34.6383 165.215C34.2756 164.558 34.0943 163.77 34.0943 162.852C34.0943 161.934 34.2756 161.152 34.6383 160.506C35.0123 159.849 35.4939 159.35 36.0833 159.01C36.6726 158.659 37.3129 158.483 38.0043 158.483C38.6843 158.483 39.3189 158.659 39.9083 159.01C40.4976 159.35 40.9736 159.849 41.3363 160.506C41.7103 161.152 41.8973 161.934 41.8973 162.852C41.8973 163.77 41.7103 164.558 41.3363 165.215C40.9736 165.861 40.4976 166.354 39.9083 166.694C39.3189 167.034 38.6843 167.204 38.0043 167.204ZM38.0043 165.827C38.4463 165.827 38.8259 165.702 39.1433 165.453C39.4719 165.204 39.7213 164.858 39.8913 164.416C40.0726 163.974 40.1633 163.453 40.1633 162.852C40.1633 162.263 40.0726 161.747 39.8913 161.305C39.7213 160.852 39.4719 160.5 39.1433 160.251C38.8259 160.002 38.4463 159.877 38.0043 159.877C37.5623 159.877 37.1769 160.002 36.8483 160.251C36.5309 160.5 36.2816 160.852 36.1003 161.305C35.9189 161.747 35.8283 162.263 35.8283 162.852C35.8283 163.453 35.9189 163.974 36.1003 164.416C36.2816 164.858 36.5309 165.204 36.8483 165.453C37.1769 165.702 37.5623 165.827 38.0043 165.827ZM45.2295 167L42.9685 158.687H44.7025L45.8075 163.243C45.8982 163.617 45.9775 163.997 46.0455 164.382C46.1249 164.767 46.1929 165.192 46.2495 165.657H46.3175C46.4082 165.192 46.4932 164.767 46.5725 164.382C46.6519 163.997 46.7312 163.617 46.8105 163.243L47.9325 158.687H49.7175L50.8735 163.243C50.9642 163.617 51.0492 163.997 51.1285 164.382C51.2192 164.767 51.3042 165.192 51.3835 165.657H51.4515C51.5422 165.192 51.6215 164.767 51.6895 164.382C51.7575 163.997 51.8312 163.617 51.9105 163.243L52.9985 158.687H54.6305L52.4545 167H50.2955L49.3095 162.852C49.2189 162.478 49.1339 162.104 49.0545 161.73C48.9865 161.345 48.9129 160.891 48.8335 160.37H48.7655C48.6862 160.891 48.6069 161.345 48.5275 161.73C48.4595 162.104 48.3745 162.478 48.2725 162.852L47.3035 167H45.2295ZM59.7559 167.204C58.9852 167.204 58.2939 167.034 57.6819 166.694C57.0699 166.343 56.5826 165.844 56.2199 165.198C55.8686 164.552 55.6929 163.77 55.6929 162.852C55.6929 161.945 55.8742 161.169 56.2369 160.523C56.5996 159.866 57.0699 159.361 57.6479 159.01C58.2259 158.659 58.8379 158.483 59.4839 158.483C60.2206 158.483 60.8382 158.653 61.3369 158.993C61.8356 159.322 62.2096 159.781 62.4589 160.37C62.7196 160.948 62.8499 161.628 62.8499 162.41C62.8499 162.569 62.8442 162.727 62.8329 162.886C62.8216 163.045 62.7989 163.198 62.7649 163.345H56.9169V162.036H61.3539C61.3539 161.333 61.2009 160.795 60.8949 160.421C60.5889 160.036 60.1299 159.843 59.5179 159.843C59.1666 159.843 58.8266 159.939 58.4979 160.132C58.1692 160.313 57.8972 160.625 57.6819 161.067C57.4666 161.498 57.3589 162.087 57.3589 162.835C57.3589 163.515 57.4779 164.076 57.7159 164.518C57.9539 164.96 58.2712 165.294 58.6679 165.521C59.0646 165.736 59.4896 165.844 59.9429 165.844C60.3282 165.844 60.6852 165.793 61.0139 165.691C61.3539 165.578 61.6656 165.43 61.9489 165.249L62.5439 166.337C62.1699 166.598 61.7449 166.807 61.2689 166.966C60.8042 167.125 60.2999 167.204 59.7559 167.204ZM64.8045 167V158.687H66.1815L66.3175 160.183H66.3685C66.6518 159.65 66.9975 159.237 67.4055 158.942C67.8248 158.636 68.2668 158.483 68.7315 158.483C68.9242 158.483 69.0885 158.5 69.2245 158.534C69.3718 158.557 69.5078 158.596 69.6325 158.653L69.2925 160.098C69.1678 160.064 69.0488 160.041 68.9355 160.03C68.8222 160.007 68.6805 159.996 68.5105 159.996C68.1705 159.996 67.8135 160.132 67.4395 160.404C67.0655 160.665 66.7482 161.129 66.4875 161.798V167H64.8045ZM70.9135 167V158.687H72.5965V167H70.9135ZM71.7635 157.106C71.4575 157.106 71.2025 157.015 70.9985 156.834C70.8058 156.641 70.7095 156.392 70.7095 156.086C70.7095 155.791 70.8058 155.553 70.9985 155.372C71.2025 155.179 71.4575 155.083 71.7635 155.083C72.0808 155.083 72.3358 155.179 72.5285 155.372C72.7212 155.553 72.8175 155.791 72.8175 156.086C72.8175 156.392 72.7212 156.641 72.5285 156.834C72.3358 157.015 72.0808 157.106 71.7635 157.106ZM75.2469 167V158.687H76.6239L76.7599 159.86H76.8109C77.1962 159.475 77.6099 159.152 78.0519 158.891C78.4939 158.619 78.9982 158.483 79.5649 158.483C80.4489 158.483 81.0949 158.766 81.5029 159.333C81.9109 159.9 82.1149 160.71 82.1149 161.764V167H80.4319V161.985C80.4319 161.248 80.3186 160.727 80.0919 160.421C79.8652 160.104 79.5026 159.945 79.0039 159.945C78.6072 159.945 78.2559 160.041 77.9499 160.234C77.6439 160.427 77.3039 160.71 76.9299 161.084V167H75.2469ZM87.4824 170.74C86.8137 170.74 86.2187 170.655 85.6974 170.485C85.176 170.326 84.768 170.083 84.4734 169.754C84.1787 169.437 84.0314 169.034 84.0314 168.547C84.0314 168.196 84.139 167.861 84.3544 167.544C84.5697 167.238 84.8644 166.966 85.2384 166.728V166.66C85.0344 166.513 84.8587 166.331 84.7114 166.116C84.564 165.889 84.4904 165.612 84.4904 165.283C84.4904 164.943 84.5867 164.643 84.7794 164.382C84.9834 164.11 85.193 163.895 85.4084 163.736V163.668C85.1364 163.453 84.887 163.152 84.6604 162.767C84.4337 162.382 84.3204 161.945 84.3204 161.458C84.3204 160.835 84.4677 160.302 84.7624 159.86C85.0684 159.418 85.4594 159.078 85.9354 158.84C86.4227 158.602 86.9554 158.483 87.5334 158.483C87.76 158.483 87.9754 158.506 88.1794 158.551C88.3947 158.585 88.5817 158.63 88.7404 158.687H91.6644V159.962H90.0324V160.03C90.2024 160.2 90.344 160.41 90.4574 160.659C90.5707 160.908 90.6274 161.197 90.6274 161.526C90.6274 162.127 90.4857 162.637 90.2024 163.056C89.9304 163.475 89.562 163.798 89.0974 164.025C88.6327 164.252 88.1114 164.365 87.5334 164.365C87.3407 164.365 87.1424 164.342 86.9384 164.297C86.7344 164.252 86.536 164.189 86.3434 164.11C86.2187 164.223 86.111 164.348 86.0204 164.484C85.9297 164.62 85.8844 164.796 85.8844 165.011C85.8844 165.249 85.9864 165.447 86.1904 165.606C86.3944 165.753 86.757 165.827 87.2784 165.827H88.8254C89.8114 165.827 90.5537 165.986 91.0524 166.303C91.551 166.62 91.8004 167.136 91.8004 167.85C91.8004 168.383 91.6247 168.864 91.2734 169.295C90.922 169.737 90.4234 170.088 89.7774 170.349C89.1314 170.61 88.3664 170.74 87.4824 170.74ZM87.5334 163.277C87.828 163.277 88.0944 163.203 88.3324 163.056C88.5704 162.909 88.763 162.699 88.9104 162.427C89.0577 162.155 89.1314 161.832 89.1314 161.458C89.1314 160.891 88.9727 160.455 88.6554 160.149C88.3494 159.832 87.9754 159.673 87.5334 159.673C87.08 159.673 86.7004 159.832 86.3944 160.149C86.0884 160.455 85.9354 160.891 85.9354 161.458C85.9354 161.832 86.009 162.155 86.1564 162.427C86.3037 162.699 86.4964 162.909 86.7344 163.056C86.9724 163.203 87.2387 163.277 87.5334 163.277ZM87.7374 169.618C88.2247 169.618 88.6497 169.55 89.0124 169.414C89.375 169.278 89.6584 169.091 89.8624 168.853C90.0664 168.626 90.1684 168.377 90.1684 168.105C90.1684 167.754 90.0324 167.51 89.7604 167.374C89.4997 167.249 89.1144 167.187 88.6044 167.187H87.3124C87.131 167.187 86.944 167.176 86.7514 167.153C86.57 167.13 86.3944 167.102 86.2244 167.068C85.9637 167.249 85.771 167.442 85.6464 167.646C85.533 167.861 85.4764 168.082 85.4764 168.309C85.4764 168.717 85.6747 169.034 86.0714 169.261C86.4794 169.499 87.0347 169.618 87.7374 169.618ZM101.404 167.204C100.418 167.204 99.5339 166.983 98.7519 166.541C97.9813 166.088 97.3749 165.43 96.9329 164.569C96.4909 163.708 96.2699 162.671 96.2699 161.458C96.2699 160.551 96.4003 159.741 96.6609 159.027C96.9329 158.313 97.3013 157.707 97.7659 157.208C98.2306 156.698 98.7803 156.313 99.4149 156.052C100.05 155.791 100.735 155.661 101.472 155.661C102.254 155.661 102.911 155.803 103.444 156.086C103.988 156.369 104.424 156.692 104.753 157.055L103.835 158.109C103.563 157.814 103.24 157.582 102.866 157.412C102.503 157.231 102.056 157.14 101.523 157.14C100.82 157.14 100.203 157.316 99.6699 157.667C99.1486 158.007 98.7406 158.494 98.4459 159.129C98.1626 159.764 98.0209 160.523 98.0209 161.407C98.0209 162.291 98.1569 163.056 98.4289 163.702C98.7009 164.348 99.0976 164.847 99.6189 165.198C100.152 165.549 100.803 165.725 101.574 165.725C101.937 165.725 102.277 165.674 102.594 165.572C102.923 165.47 103.183 165.328 103.376 165.147V162.495H101.149V161.101H104.906V165.895C104.543 166.269 104.056 166.581 103.444 166.83C102.843 167.079 102.163 167.204 101.404 167.204ZM107.321 167V158.687H108.698L108.834 160.183H108.885C109.168 159.65 109.514 159.237 109.922 158.942C110.341 158.636 110.783 158.483 111.248 158.483C111.441 158.483 111.605 158.5 111.741 158.534C111.888 158.557 112.024 158.596 112.149 158.653L111.809 160.098C111.684 160.064 111.565 160.041 111.452 160.03C111.339 160.007 111.197 159.996 111.027 159.996C110.687 159.996 110.33 160.132 109.956 160.404C109.582 160.665 109.265 161.129 109.004 161.798V167H107.321ZM116.749 167.204C115.978 167.204 115.287 167.034 114.675 166.694C114.063 166.343 113.576 165.844 113.213 165.198C112.862 164.552 112.686 163.77 112.686 162.852C112.686 161.945 112.867 161.169 113.23 160.523C113.593 159.866 114.063 159.361 114.641 159.01C115.219 158.659 115.831 158.483 116.477 158.483C117.214 158.483 117.831 158.653 118.33 158.993C118.829 159.322 119.203 159.781 119.452 160.37C119.713 160.948 119.843 161.628 119.843 162.41C119.843 162.569 119.837 162.727 119.826 162.886C119.815 163.045 119.792 163.198 119.758 163.345H113.91V162.036H118.347C118.347 161.333 118.194 160.795 117.888 160.421C117.582 160.036 117.123 159.843 116.511 159.843C116.16 159.843 115.82 159.939 115.491 160.132C115.162 160.313 114.89 160.625 114.675 161.067C114.46 161.498 114.352 162.087 114.352 162.835C114.352 163.515 114.471 164.076 114.709 164.518C114.947 164.96 115.264 165.294 115.661 165.521C116.058 165.736 116.483 165.844 116.936 165.844C117.321 165.844 117.678 165.793 118.007 165.691C118.347 165.578 118.659 165.43 118.942 165.249L119.537 166.337C119.163 166.598 118.738 166.807 118.262 166.966C117.797 167.125 117.293 167.204 116.749 167.204ZM125.266 167.204C124.495 167.204 123.804 167.034 123.192 166.694C122.58 166.343 122.092 165.844 121.73 165.198C121.378 164.552 121.203 163.77 121.203 162.852C121.203 161.945 121.384 161.169 121.747 160.523C122.109 159.866 122.58 159.361 123.158 159.01C123.736 158.659 124.348 158.483 124.994 158.483C125.73 158.483 126.348 158.653 126.847 158.993C127.345 159.322 127.719 159.781 127.969 160.37C128.229 160.948 128.36 161.628 128.36 162.41C128.36 162.569 128.354 162.727 128.343 162.886C128.331 163.045 128.309 163.198 128.275 163.345H122.427V162.036H126.864C126.864 161.333 126.711 160.795 126.405 160.421C126.099 160.036 125.64 159.843 125.028 159.843C124.676 159.843 124.336 159.939 124.008 160.132C123.679 160.313 123.407 160.625 123.192 161.067C122.976 161.498 122.869 162.087 122.869 162.835C122.869 163.515 122.988 164.076 123.226 164.518C123.464 164.96 123.781 165.294 124.178 165.521C124.574 165.736 124.999 165.844 125.453 165.844C125.838 165.844 126.195 165.793 126.524 165.691C126.864 165.578 127.175 165.43 127.459 165.249L128.054 166.337C127.68 166.598 127.255 166.807 126.779 166.966C126.314 167.125 125.81 167.204 125.266 167.204ZM130.314 167V158.687H131.691L131.827 159.86H131.878C132.264 159.475 132.677 159.152 133.119 158.891C133.561 158.619 134.066 158.483 134.632 158.483C135.516 158.483 136.162 158.766 136.57 159.333C136.978 159.9 137.182 160.71 137.182 161.764V167H135.499V161.985C135.499 161.248 135.386 160.727 135.159 160.421C134.933 160.104 134.57 159.945 134.071 159.945C133.675 159.945 133.323 160.041 133.017 160.234C132.711 160.427 132.371 160.71 131.997 161.084V167H130.314ZM26.926 205V180.224H32.512V205H26.926ZM37.8997 205V186.152H42.4597L42.8397 188.546H42.9917C43.777 187.761 44.6637 187.089 45.6517 186.532C46.6397 185.975 47.767 185.696 49.0337 185.696C51.111 185.696 52.6057 186.38 53.5177 187.748C54.4297 189.091 54.8857 190.94 54.8857 193.296V205H49.2997V194.018C49.2997 192.65 49.1097 191.713 48.7297 191.206C48.375 190.699 47.7924 190.446 46.9817 190.446C46.2724 190.446 45.6644 190.611 45.1577 190.94C44.651 191.244 44.0937 191.687 43.4857 192.27V205H37.8997ZM66.3718 205.456C64.0411 205.456 62.1664 204.582 60.7478 202.834C59.3544 201.061 58.6578 198.641 58.6578 195.576C58.6578 193.524 59.0251 191.763 59.7598 190.294C60.5198 188.825 61.4951 187.697 62.6858 186.912C63.9018 186.101 65.1684 185.696 66.4858 185.696C67.5244 185.696 68.3984 185.873 69.1078 186.228C69.8171 186.583 70.4884 187.064 71.1218 187.672L70.8938 184.784V178.362H76.4798V205H71.9198L71.5398 203.138H71.3878C70.7291 203.797 69.9564 204.354 69.0698 204.81C68.1831 205.241 67.2838 205.456 66.3718 205.456ZM67.8158 200.896C68.4238 200.896 68.9811 200.769 69.4878 200.516C69.9944 200.263 70.4631 199.819 70.8938 199.186V191.472C70.4124 191.016 69.9058 190.699 69.3738 190.522C68.8418 190.345 68.3098 190.256 67.7778 190.256C67.1698 190.256 66.6124 190.446 66.1058 190.826C65.5991 191.206 65.1811 191.789 64.8518 192.574C64.5478 193.334 64.3958 194.309 64.3958 195.5C64.3958 197.349 64.6998 198.717 65.3078 199.604C65.9158 200.465 66.7518 200.896 67.8158 200.896ZM81.429 205V186.152H87.015V205H81.429ZM84.203 183.378C83.2657 183.378 82.5057 183.112 81.923 182.58C81.3403 182.048 81.049 181.339 81.049 180.452C81.049 179.565 81.3403 178.856 81.923 178.324C82.5057 177.792 83.2657 177.526 84.203 177.526C85.1403 177.526 85.9003 177.792 86.483 178.324C87.0657 178.856 87.357 179.565 87.357 180.452C87.357 181.339 87.0657 182.048 86.483 182.58C85.9003 183.112 85.1403 183.378 84.203 183.378ZM96.6809 205.456C95.5409 205.456 94.5403 205.203 93.6789 204.696C92.8429 204.189 92.1969 203.505 91.7409 202.644C91.2849 201.783 91.0569 200.82 91.0569 199.756C91.0569 197.729 91.8929 196.171 93.5649 195.082C95.2369 193.967 97.9349 193.22 101.659 192.84C101.634 192.283 101.507 191.814 101.279 191.434C101.076 191.029 100.76 190.725 100.329 190.522C99.8983 190.294 99.3536 190.18 98.6949 190.18C97.9096 190.18 97.1116 190.319 96.3009 190.598C95.4903 190.877 94.6163 191.282 93.6789 191.814L91.7029 188.166C92.5136 187.659 93.3496 187.229 94.2109 186.874C95.0723 186.494 95.9589 186.203 96.8709 186C97.8083 185.797 98.7709 185.696 99.7589 185.696C101.38 185.696 102.736 186.013 103.825 186.646C104.94 187.254 105.788 188.191 106.371 189.458C106.954 190.699 107.245 192.295 107.245 194.246V205H102.685L102.305 203.062H102.153C101.342 203.771 100.494 204.354 99.6069 204.81C98.7203 205.241 97.7449 205.456 96.6809 205.456ZM98.5429 201.086C99.1763 201.086 99.7336 200.947 100.215 200.668C100.696 200.389 101.178 200.009 101.659 199.528V196.336C100.342 196.513 99.2903 196.741 98.5049 197.02C97.7449 197.299 97.2003 197.641 96.8709 198.046C96.5669 198.426 96.4149 198.857 96.4149 199.338C96.4149 199.921 96.6049 200.364 96.9849 200.668C97.3903 200.947 97.9096 201.086 98.5429 201.086Z" fill="white"/>
</svg>
